# xmcd CD database file
#
# Track frame offsets:
#	150
#	7180
#	27971
#	41210
#	61285
#	67619
#	77904
#	88606
#	114007
#	119665
#	137026
#	157126
#	186255
#	202701
#	222172
#	242992
#
# Disc length: 3552 seconds
#
# Revision: 0
# Processed by: cddbd v1.5.2PL0 Copyright (c) Steve Scherf et al.
# Submitted via: CDex 1.51
#
DISCID=dd0dde10
DTITLE=Hot Club of San Francisco - Bohemian Maestro: Django Reinhardt and the Impressionists
DYEAR=2008
DGENRE=Jazz
TTITLE0=Le Surdoue
TTITLE1=Le Jongleur
TTITLE2=Vendredi 13
TTITLE3=Diminushing Blackness
TTITLE4=Pour L'Egyptienne
TTITLE5=Les Chemins de L'Amour
TTITLE6=Waltz for M.C. Escher
TTITLE7=Bolero
TTITLE8=Pour L'Egyptienne (reprise)
TTITLE9=The Pearls
TTITLE10=Nympheas
TTITLE11=Messe
TTITLE12=Improvisation No. 3
TTITLE13=Choros
TTITLE14=Les Copains d'Abord
TTITLE15=Clair de Lune
EXTD=YEAR: 2008
EXTT0=
EXTT1=
EXTT2=
EXTT3=
EXTT4=
EXTT5=
EXTT6=
EXTT7=
EXTT8=
EXTT9=
EXTT10=
EXTT11=
EXTT12=
EXTT13=
EXTT14=
EXTT15=
PLAYORDER=
